HIERARCHY
ROOT mixamorig:Hips
{
	OFFSET -0.000008 104.274872 1.554316
	CHANNELS 6 Xposition Yposition Zposition Xrotation Yrotation Zrotation
	JOINT mixamorig:Spine
	{
		OFFSET -0.000005 10.181595 0.131519
		CHANNELS 6 Xposition Yposition Zposition Xrotation Yrotation Zrotation
		JOINT mixamorig:Spine1
		{
			OFFSET -0.000000 9.893959 -1.470707
			CHANNELS 6 Xposition Yposition Zposition Xrotation Yrotation Zrotation
			JOINT mixamorig:Spine2
			{
				OFFSET -0.000000 9.220757 -1.370641
				CHANNELS 6 Xposition Yposition Zposition Xrotation Yrotation Zrotation
				JOINT mixamorig:Neck
				{
					OFFSET 0.000001 16.740417 -2.049036
					CHANNELS 6 Xposition Yposition Zposition Xrotation Yrotation Zrotation
					JOINT mixamorig:Head
					{
						OFFSET 0.000000 9.617874 1.685006
						CHANNELS 6 Xposition Yposition Zposition Xrotation Yrotation Zrotation
						JOINT mixamorig:HeadTop_End
						{
							OFFSET 0.000002 22.037354 7.501101
							CHANNELS 6 Xposition Yposition Zposition Xrotation Yrotation Zrotation
							End Site
							{
								OFFSET 0.000168 2310.654297 -282.823242
							}
						}
					}
				}
				JOINT mixamorig:RightShoulder
				{
					OFFSET -4.569970 11.014908 -2.160885
					CHANNELS 6 Xposition Yposition Zposition Xrotation Yrotation Zrotation
					JOINT mixamorig:RightArm
					{
						OFFSET -10.592851 -0.524811 -2.232101
						CHANNELS 6 Xposition Yposition Zposition Xrotation Yrotation Zrotation
						JOINT mixamorig:RightForeArm
						{
							OFFSET -27.841511 0.000031 -0.000004
							CHANNELS 6 Xposition Yposition Zposition Xrotation Yrotation Zrotation
							JOINT mixamorig:RightHand
							{
								OFFSET -28.328831 -0.000015 0.000015
								CHANNELS 6 Xposition Yposition Zposition Xrotation Yrotation Zrotation
								JOINT mixamorig:RightHandThumb1
								{
									OFFSET -2.464806 -1.573990 2.681852
									CHANNELS 6 Xposition Yposition Zposition Xrotation Yrotation Zrotation
									JOINT mixamorig:RightHandThumb2
									{
										OFFSET -3.215179 -1.872803 1.924282
										CHANNELS 6 Xposition Yposition Zposition Xrotation Yrotation Zrotation
										JOINT mixamorig:RightHandThumb3
										{
											OFFSET -2.654831 -1.527969 1.512609
											CHANNELS 6 Xposition Yposition Zposition Xrotation Yrotation Zrotation
											JOINT mixamorig:RightHandThumb4
											{
												OFFSET -2.018814 -1.152008 1.108052
												CHANNELS 6 Xposition Yposition Zposition Xrotation Yrotation Zrotation
												End Site
												{
													OFFSET -188.809540 -114.533607 132.431396
												}
											}
										}
									}
								}
								JOINT mixamorig:RightHandIndex1
								{
									OFFSET -9.108284 -0.517868 2.259835
									CHANNELS 6 Xposition Yposition Zposition Xrotation Yrotation Zrotation
									JOINT mixamorig:RightHandIndex2
									{
										OFFSET -3.699989 0.000000 0.001215
										CHANNELS 6 Xposition Yposition Zposition Xrotation Yrotation Zrotation
										JOINT mixamorig:RightHandIndex3
										{
											OFFSET -2.850006 0.000031 -0.000522
											CHANNELS 6 Xposition Yposition Zposition Xrotation Yrotation Zrotation
											JOINT mixamorig:RightHandIndex4
											{
												OFFSET -2.772186 -0.000015 -0.000020
												CHANNELS 6 Xposition Yposition Zposition Xrotation Yrotation Zrotation
												End Site
												{
													OFFSET -277.218445 0.000000 -0.050231
												}
											}
										}
									}
								}
								JOINT mixamorig:RightHandMiddle1
								{
									OFFSET -9.532516 -0.000031 -0.000023
									CHANNELS 6 Xposition Yposition Zposition Xrotation Yrotation Zrotation
									JOINT mixamorig:RightHandMiddle2
									{
										OFFSET -3.700005 -0.000015 0.003713
										CHANNELS 6 Xposition Yposition Zposition Xrotation Yrotation Zrotation
										JOINT mixamorig:RightHandMiddle3
										{
											OFFSET -2.949974 0.000015 -0.002054
											CHANNELS 6 Xposition Yposition Zposition Xrotation Yrotation Zrotation
											JOINT mixamorig:RightHandMiddle4
											{
												OFFSET -2.946640 0.000000 -0.000156
												CHANNELS 6 Xposition Yposition Zposition Xrotation Yrotation Zrotation
												End Site
												{
													OFFSET -294.664337 0.000000 -0.113670
												}
											}
										}
									}
								}
								JOINT mixamorig:RightHandRing1
								{
									OFFSET -9.103600 -0.043076 -1.865134
									CHANNELS 6 Xposition Yposition Zposition Xrotation Yrotation Zrotation
									JOINT mixamorig:RightHandRing2
									{
										OFFSET -3.379288 0.000000 -0.001055
										CHANNELS 6 Xposition Yposition Zposition Xrotation Yrotation Zrotation
										JOINT mixamorig:RightHandRing3
										{
											OFFSET -2.889687 -0.000015 0.000379
											CHANNELS 6 Xposition Yposition Zposition Xrotation Yrotation Zrotation
											JOINT mixamorig:RightHandRing4
											{
												OFFSET -2.638809 -0.000015 0.000941
												CHANNELS 6 Xposition Yposition Zposition Xrotation Yrotation Zrotation
												End Site
												{
													OFFSET -263.880371 0.000000 0.516020
												}
											}
										}
									}
								}
								JOINT mixamorig:RightHandPinky1
								{
									OFFSET -8.076683 -0.486710 -3.806280
									CHANNELS 6 Xposition Yposition Zposition Xrotation Yrotation Zrotation
									JOINT mixamorig:RightHandPinky2
									{
										OFFSET -3.600014 -0.000015 -0.003747
										CHANNELS 6 Xposition Yposition Zposition Xrotation Yrotation Zrotation
										JOINT mixamorig:RightHandPinky3
										{
											OFFSET -2.099983 0.000000 -0.005739
											CHANNELS 6 Xposition Yposition Zposition Xrotation Yrotation Zrotation
											JOINT mixamorig:RightHandPinky4
											{
												OFFSET -2.115768 -0.000031 -0.003680
												CHANNELS 6 Xposition Yposition Zposition Xrotation Yrotation Zrotation
												End Site
												{
													OFFSET -211.577087 0.000000 -0.350686
												}
											}
										}
									}
								}
							}
						}
					}
				}
				JOINT mixamorig:LeftShoulder
				{
					OFFSET 4.570447 11.014725 -2.160855
					CHANNELS 6 Xposition Yposition Zposition Xrotation Yrotation Zrotation
					JOINT mixamorig:LeftArm
					{
						OFFSET 10.592371 -0.524597 -2.232119
						CHANNELS 6 Xposition Yposition Zposition Xrotation Yrotation Zrotation
						JOINT mixamorig:LeftForeArm
						{
							OFFSET 27.841532 -0.000031 0.000026
							CHANNELS 6 Xposition Yposition Zposition Xrotation Yrotation Zrotation
							JOINT mixamorig:LeftHand
							{
								OFFSET 28.328846 -0.000061 0.000022
								CHANNELS 6 Xposition Yposition Zposition Xrotation Yrotation Zrotation
								JOINT mixamorig:LeftHandThumb1
								{
									OFFSET 2.466141 -1.576172 2.681732
									CHANNELS 6 Xposition Yposition Zposition Xrotation Yrotation Zrotation
									JOINT mixamorig:LeftHandThumb2
									{
										OFFSET 3.217812 -1.872070 1.916482
										CHANNELS 6 Xposition Yposition Zposition Xrotation Yrotation Zrotation
										JOINT mixamorig:LeftHandThumb3
										{
											OFFSET 2.656029 -1.528778 1.514513
											CHANNELS 6 Xposition Yposition Zposition Xrotation Yrotation Zrotation
											JOINT mixamorig:LeftHandThumb4
											{
												OFFSET 2.020889 -1.154053 1.115139
												CHANNELS 6 Xposition Yposition Zposition Xrotation Yrotation Zrotation
												End Site
												{
													OFFSET 190.885437 -115.081749 130.048782
												}
											}
										}
									}
								}
								JOINT mixamorig:LeftHandIndex1
								{
									OFFSET 9.109314 -0.518021 2.259871
									CHANNELS 6 Xposition Yposition Zposition Xrotation Yrotation Zrotation
									JOINT mixamorig:LeftHandIndex2
									{
										OFFSET 3.699989 0.000000 -0.000322
										CHANNELS 6 Xposition Yposition Zposition Xrotation Yrotation Zrotation
										JOINT mixamorig:LeftHandIndex3
										{
											OFFSET 2.850006 0.000000 0.000352
											CHANNELS 6 Xposition Yposition Zposition Xrotation Yrotation Zrotation
											JOINT mixamorig:LeftHandIndex4
											{
												OFFSET 2.774864 -0.000031 -0.000027
												CHANNELS 6 Xposition Yposition Zposition Xrotation Yrotation Zrotation
												End Site
												{
													OFFSET 277.486267 0.000000 -0.009857
												}
											}
										}
									}
								}
								JOINT mixamorig:LeftHandMiddle1
								{
									OFFSET 9.533394 0.000061 0.000044
									CHANNELS 6 Xposition Yposition Zposition Xrotation Yrotation Zrotation
									JOINT mixamorig:LeftHandMiddle2
									{
										OFFSET 3.699989 -0.000015 -0.000231
										CHANNELS 6 Xposition Yposition Zposition Xrotation Yrotation Zrotation
										JOINT mixamorig:LeftHandMiddle3
										{
											OFFSET 2.949997 -0.000015 -0.000059
											CHANNELS 6 Xposition Yposition Zposition Xrotation Yrotation Zrotation
											JOINT mixamorig:LeftHandMiddle4
											{
												OFFSET 2.952896 0.000031 0.000063
												CHANNELS 6 Xposition Yposition Zposition Xrotation Yrotation Zrotation
												End Site
												{
													OFFSET 295.289337 0.000000 0.022810
												}
											}
										}
									}
								}
								JOINT mixamorig:LeftHandRing1
								{
									OFFSET 9.104523 -0.042999 -1.865074
									CHANNELS 6 Xposition Yposition Zposition Xrotation Yrotation Zrotation
									JOINT mixamorig:LeftHandRing2
									{
										OFFSET 3.150009 -0.000031 0.000043
										CHANNELS 6 Xposition Yposition Zposition Xrotation Yrotation Zrotation
										JOINT mixamorig:LeftHandRing3
										{
											OFFSET 2.949982 -0.000015 0.000040
											CHANNELS 6 Xposition Yposition Zposition Xrotation Yrotation Zrotation
											JOINT mixamorig:LeftHandRing4
											{
												OFFSET 2.644348 0.000000 0.000057
												CHANNELS 6 Xposition Yposition Zposition Xrotation Yrotation Zrotation
												End Site
												{
													OFFSET 264.434631 0.000000 0.012105
												}
											}
										}
									}
								}
								JOINT mixamorig:LeftHandPinky1
								{
									OFFSET 8.077789 -0.486847 -3.806259
									CHANNELS 6 Xposition Yposition Zposition Xrotation Yrotation Zrotation
									JOINT mixamorig:LeftHandPinky2
									{
										OFFSET 3.599953 0.000031 0.014727
										CHANNELS 6 Xposition Yposition Zposition Xrotation Yrotation Zrotation
										JOINT mixamorig:LeftHandPinky3
										{
											OFFSET 2.100021 0.000015 0.007705
											CHANNELS 6 Xposition Yposition Zposition Xrotation Yrotation Zrotation
											JOINT mixamorig:LeftHandPinky4
											{
												OFFSET 2.125504 0.000031 0.007517
												CHANNELS 6 Xposition Yposition Zposition Xrotation Yrotation Zrotation
												End Site
												{
													OFFSET 212.550781 0.000000 0.625752
												}
											}
										}
									}
								}
							}
						}
					}
				}
			}
		}
	}
	JOINT mixamorig:RightUpLeg
	{
		OFFSET -8.207787 -6.751648 -1.599560
		CHANNELS 6 Xposition Yposition Zposition Xrotation Yrotation Zrotation
		JOINT mixamorig:RightLeg
		{
			OFFSET -0.000002 -44.370117 0.345942
			CHANNELS 6 Xposition Yposition Zposition Xrotation Yrotation Zrotation
			JOINT mixamorig:RightFoot
			{
				OFFSET 0.000003 -44.423679 -3.043532
				CHANNELS 6 Xposition Yposition Zposition Xrotation Yrotation Zrotation
				JOINT mixamorig:RightToeBase
				{
					OFFSET -0.000002 -8.728671 10.710558
					CHANNELS 6 Xposition Yposition Zposition Xrotation Yrotation Zrotation
					JOINT mixamorig:RightToe_End
					{
						OFFSET -0.000001 -0.000679 9.278119
						CHANNELS 6 Xposition Yposition Zposition Xrotation Yrotation Zrotation
						End Site
						{
							OFFSET 0.000000 -0.067690 927.812134
						}
					}
				}
			}
		}
	}
	JOINT mixamorig:LeftUpLeg
	{
		OFFSET 8.207793 -6.751686 -1.599556
		CHANNELS 6 Xposition Yposition Zposition Xrotation Yrotation Zrotation
		JOINT mixamorig:LeftLeg
		{
			OFFSET -0.000004 -44.370014 0.346954
			CHANNELS 6 Xposition Yposition Zposition Xrotation Yrotation Zrotation
			JOINT mixamorig:LeftFoot
			{
				OFFSET -0.000001 -44.423672 -3.044401
				CHANNELS 6 Xposition Yposition Zposition Xrotation Yrotation Zrotation
				JOINT mixamorig:LeftToeBase
				{
					OFFSET -0.000002 -8.728669 10.710558
					CHANNELS 6 Xposition Yposition Zposition Xrotation Yrotation Zrotation
					JOINT mixamorig:LeftToe_End
					{
						OFFSET -0.000003 -0.000679 9.278133
						CHANNELS 6 Xposition Yposition Zposition Xrotation Yrotation Zrotation
						End Site
						{
							OFFSET 0.000000 -0.068021 927.813477
						}
					}
				}
			}
		}
	}
}
MOTION
Frames: 3
Frame Time: 0.033333
0.000006 104.270477 1.554256 0.000010 0.000003 -0.000113 -0.000005 10.181587 0.131522 0.000001 -0.000003 0.000084 -0.000000 9.893967 -1.470711 0.000001 0.000000 -0.000000 -0.000000 9.220802 -1.370642 0.000000 -0.000000 -0.000000 0.000001 16.740433 -2.049030 0.000000 -0.000000 -0.000000 0.000000 9.617859 1.685014 0.000000 0.000000 0.000000 0.000002 22.037384 7.501101 0.000000 -0.000000 0.000000 -4.569968 11.014880 -2.160881 0.000008 0.000001 -0.000038 -10.592869 -0.524778 -2.231897 73.912585 32.227551 -24.525394 -27.841524 0.000013 0.000538 -54.974659 106.290878 69.529113 -28.328817 0.000022 0.000030 -0.000318 -0.000041 0.000005 -2.464423 -1.573910 2.682374 -33.197745 -156.142619 21.923785 -3.215258 -1.872554 1.924644 154.753768 33.419836 14.676439 -2.654955 -1.527918 1.513094 147.139077 26.376606 -42.426659 -2.018826 -1.152025 1.108066 -0.000006 -0.000001 0.000002 -9.108387 -0.517578 2.260117 97.730902 19.734945 -22.581171 -3.700069 0.000314 0.001517 95.451108 15.153155 -16.621390 -2.850082 0.000365 -0.000270 94.715852 11.673572 -12.667374 -2.772185 -0.000002 -0.000022 -0.000002 0.000001 -0.000001 -9.532598 0.000252 0.000276 97.088735 20.483828 -23.286637 -3.700074 0.000329 0.003993 96.812454 13.406862 -14.977422 -2.950064 0.000340 -0.001777 97.773427 11.630381 -13.303527 -2.946629 0.000014 -0.000157 -0.000004 -0.000001 -0.000001 -9.103718 -0.042794 -1.864858 94.026795 23.574005 -25.188483 -3.379362 0.000291 -0.000791 95.388127 13.039697 -14.334477 -2.889763 0.000340 0.000686 100.565957 7.959599 -9.630251 -2.638801 -0.000025 0.000942 0.000001 -0.000000 0.000003 -8.076765 -0.486434 -3.806066 76.797315 23.399849 -18.513100 -3.600069 0.000259 -0.003518 83.901777 14.384887 -12.599469 -2.100039 0.000306 -0.005490 88.847804 8.934605 -8.532660 -2.115771 -0.000028 -0.003674 -0.000004 -0.000002 -0.000002 4.570446 11.014691 -2.160851 -0.000018 0.000010 -0.000021 10.592420 -0.524476 -2.232369 71.613031 -21.327332 15.471002 27.841822 0.000055 -0.000187 100.854928 -73.758543 84.465794 28.328833 -0.000042 0.000019 0.000022 -0.000089 -0.000000 2.466075 -1.576155 2.681900 -26.356300 161.224020 -39.394096 3.217854 -1.871837 1.916395 156.316884 -25.960530 28.937244 2.656090 -1.528663 1.514470 141.358592 -27.431389 46.353222 2.020894 -1.154085 1.115151 0.000001 0.000001 0.000004 9.109369 -0.517890 2.259734 75.027647 -17.638760 13.575607 3.700037 0.000091 -0.000444 69.746975 -19.230708 13.480118 2.850066 0.000138 0.000229 65.862811 -16.368717 10.643207 2.774866 -0.000030 -0.000031 -0.000000 -0.000001 -0.000001 9.533456 0.000158 -0.000087 65.329523 -18.096265 11.652888 3.700052 0.000111 -0.000363 68.077390 -20.078437 13.636544 2.950060 0.000093 -0.000174 66.072108 -21.745055 14.241514 2.952853 -0.000028 0.000062 0.000000 0.000001 0.000002 9.104562 -0.042902 -1.865211 64.483071 -16.623555 10.530976 3.150039 0.000141 -0.000075 71.261966 -16.898289 12.155986 2.950024 0.000109 -0.000060 70.913654 -18.043034 12.903305 2.644324 0.000031 0.000055 -0.000001 0.000001 0.000000 8.077806 -0.486781 -3.806389 54.391679 -16.593630 8.892142 3.599989 0.000112 0.014584 53.383468 -13.642329 7.154786 2.100023 0.000109 0.007563 56.341899 -12.672246 7.077870 2.125483 -0.000016 0.007516 -0.000000 0.000000 0.000002 -8.207786 -6.751667 -1.599560 -0.077001 -0.000003 0.000080 -0.000002 -44.370110 0.345938 0.153719 -0.000000 -0.000000 0.000000 -44.423679 -3.043532 -0.076700 0.000000 -0.000002 -0.000006 -8.728667 10.710559 -0.000009 -0.000000 -0.000000 -0.000001 -0.000679 9.278123 0.000000 -0.000000 -0.000000 8.207792 -6.751710 -1.599556 -0.074518 -0.000003 0.000081 -0.000002 -44.370014 0.346960 0.148822 0.000002 0.000000 -0.000001 -44.423664 -3.044403 -0.074314 0.000000 -0.000002 -0.000004 -8.728671 10.710558 0.000007 -0.000000 -0.000000 0.000000 -0.000680 9.278137 -0.000000 0.000000 -0.000001 
0.000006 104.270477 1.554256 0.000010 0.000003 -0.000113 -0.000005 10.181587 0.131522 0.000001 -0.000003 0.000084 -0.000000 9.893967 -1.470711 0.000001 0.000000 -0.000000 -0.000000 9.220802 -1.370642 0.000000 -0.000000 -0.000000 0.000001 16.740433 -2.049030 0.000000 -0.000000 -0.000000 0.000000 9.617859 1.685014 0.000000 0.000000 0.000000 0.000002 22.037384 7.501101 0.000000 -0.000000 0.000000 -4.569968 11.014880 -2.160881 0.000008 0.000001 -0.000038 -10.592866 -0.524785 -2.231874 72.967205 37.982419 -28.558365 -27.841528 0.000005 0.000575 -48.613639 103.880395 59.957532 -28.328814 0.000022 0.000027 -0.000321 -0.000045 0.000007 -2.464406 -1.573771 2.682313 -47.662781 -161.415497 -9.523355 -3.215285 -1.872586 1.924637 151.056928 31.124872 3.602080 -2.654970 -1.527852 1.513064 141.260306 28.160564 -34.926849 -2.018834 -1.151998 1.108068 -0.000002 -0.000003 0.000002 -9.108383 -0.517543 2.260115 95.947157 14.786105 -16.436372 -3.700047 0.000320 0.001517 93.096851 13.154270 -13.853496 -2.850079 0.000365 -0.000270 91.680782 11.223976 -11.554970 -2.772176 -0.000016 -0.000015 -0.000004 -0.000002 -0.000001 -9.532589 0.000271 0.000231 93.393070 14.974399 -16.026411 -3.700069 0.000317 0.003970 94.467076 12.813392 -13.740740 -2.950062 0.000339 -0.001809 95.393516 12.302622 -13.500279 -2.946618 0.000013 -0.000153 -0.000000 0.000001 0.000000 -9.103704 -0.042754 -1.864889 90.746269 17.854840 -18.039581 -3.379345 0.000320 -0.000810 92.516886 12.028230 -12.582959 -2.889760 0.000340 0.000652 97.633504 9.145334 -10.499552 -2.638811 -0.000017 0.000942 -0.000002 0.000001 0.000001 -8.076760 -0.486404 -3.806054 77.788239 20.570925 -16.530125 -3.600058 0.000253 -0.003552 80.344922 12.314226 -10.091651 -2.100034 0.000308 -0.005508 84.326875 6.977492 -6.117467 -2.115787 -0.000036 -0.003676 -0.000002 -0.000002 -0.000005 4.570446 11.014691 -2.160851 -0.000018 0.000010 -0.000021 10.592421 -0.524479 -2.232379 71.269220 -20.203080 14.555712 27.841835 0.000029 -0.000179 104.446727 -75.616341 90.065272 28.328835 -0.000028 0.000019 0.000025 -0.000088 -0.000001 2.466251 -1.576117 2.681848 -3.984734 164.476337 -81.874468 3.217879 -1.871840 1.916426 159.415195 -21.840268 45.546509 2.656101 -1.528697 1.514494 137.478321 -28.206735 59.364145 2.020887 -1.154085 1.115160 -0.000000 0.000002 0.000004 9.109381 -0.517903 2.259738 73.974330 -21.319510 16.128232 3.700028 0.000124 -0.000456 72.025458 -15.856033 11.573125 2.850047 0.000145 0.000201 71.451148 -12.985983 9.358531 2.774895 -0.000030 -0.000027 -0.000002 0.000001 -0.000000 9.533464 0.000137 -0.000082 67.113425 -21.146575 14.109902 3.700029 0.000124 -0.000377 70.355060 -14.835226 10.483855 2.950056 0.000130 -0.000192 70.866594 -13.914489 9.926902 2.952858 -0.000016 0.000066 0.000002 -0.000000 0.000000 9.104589 -0.042910 -1.865207 66.970073 -21.377773 14.235728 3.150043 0.000140 -0.000086 70.891018 -14.923567 10.654520 2.950020 0.000132 -0.000081 72.002345 -11.591059 8.436627 2.644323 0.000032 0.000059 -0.000002 -0.000001 0.000001 8.077847 -0.486782 -3.806370 58.229979 -21.308365 12.327152 3.599983 0.000099 0.014608 56.611026 -17.242533 9.639016 2.100008 0.000133 0.007571 59.127916 -12.761578 7.545379 2.125512 -0.000017 0.007516 -0.000003 0.000001 -0.000000 -8.207786 -6.751667 -1.599560 -0.077001 -0.000003 0.000080 -0.000002 -44.370110 0.345938 0.153719 -0.000000 -0.000000 0.000000 -44.423679 -3.043532 -0.076700 0.000000 -0.000002 -0.000006 -8.728667 10.710559 -0.000009 -0.000000 -0.000000 -0.000001 -0.000679 9.278123 0.000000 -0.000000 -0.000000 8.207792 -6.751710 -1.599556 -0.074518 -0.000003 0.000081 -0.000002 -44.370014 0.346960 0.148822 0.000002 0.000000 -0.000001 -44.423664 -3.044403 -0.074314 0.000000 -0.000002 -0.000004 -8.728671 10.710558 0.000007 -0.000000 -0.000000 0.000000 -0.000680 9.278137 -0.000000 0.000000 -0.000001 
0.000006 104.270477 1.554256 0.000010 0.000003 -0.000113 -0.000005 10.181587 0.131522 0.000001 -0.000003 0.000084 -0.000000 9.893967 -1.470711 0.000001 0.000000 -0.000000 -0.000000 9.220802 -1.370642 0.000000 -0.000000 -0.000000 0.000001 16.740433 -2.049030 0.000000 -0.000000 -0.000000 0.000000 9.617859 1.685014 0.000000 0.000000 0.000000 0.000002 22.037384 7.501101 0.000000 -0.000000 0.000000 -4.569968 11.014880 -2.160881 0.000008 0.000001 -0.000038 -10.592831 -0.524825 -2.231796 71.850346 53.427174 -40.066310 -27.841515 -0.000009 0.000573 -33.889360 100.664564 40.347013 -28.328835 -0.000007 0.000025 -0.000321 -0.000045 0.000009 -2.464404 -1.573774 2.682314 -49.086958 -162.408211 -13.063554 -3.215265 -1.872554 1.924626 148.631910 31.682119 10.902912 -2.654953 -1.527867 1.513040 145.074434 28.085685 -27.107510 -2.018823 -1.152016 1.108065 -0.000006 -0.000003 0.000004 -9.108358 -0.517541 2.260118 97.806007 14.081002 -16.169880 -3.700062 0.000314 0.001488 92.298033 12.877630 -13.375729 -2.850083 0.000364 -0.000281 91.166681 10.121051 -10.327220 -2.772172 -0.000001 -0.000017 0.000001 0.000002 0.000000 -9.532564 0.000287 0.000232 94.075139 11.058536 -12.013626 -3.700068 0.000332 0.003957 93.604266 10.495502 -11.074354 -2.950043 0.000322 -0.001836 92.857330 10.846180 -11.390076 -2.946625 0.000017 -0.000155 -0.000001 0.000003 0.000000 -9.103662 -0.042728 -1.864864 93.644496 12.169787 -12.917812 -3.379336 0.000308 -0.000807 92.223304 9.272328 -9.655537 -2.889763 0.000338 0.000623 93.966471 8.187696 -8.822470 -2.638803 -0.000017 0.000932 -0.000001 0.000001 0.000000 -8.076725 -0.486365 -3.806014 89.791149 12.901082 -12.710630 -3.600035 0.000283 -0.003541 87.372716 6.897657 -6.256799 -2.100025 0.000315 -0.005498 87.479437 5.139869 -4.710403 -2.115767 -0.000032 -0.003683 0.000004 -0.000001 -0.000001 4.570446 11.014691 -2.160851 -0.000018 0.000010 -0.000021 10.592497 -0.524490 -2.232413 69.621170 -46.324983 33.131813 27.841812 0.000047 -0.000174 108.814715 -80.046136 99.119330 28.328850 -0.000024 0.000023 0.000020 -0.000087 -0.000001 2.466278 -1.575964 2.681813 21.605230 179.821204 -126.881132 3.217877 -1.871901 1.916456 166.186057 -15.682526 58.498965 2.656101 -1.528711 1.514512 138.561111 -27.564290 66.147616 2.020891 -1.154083 1.115142 -0.000000 0.000002 0.000002 9.109382 -0.517904 2.259762 69.411579 -23.515131 16.396166 3.700045 0.000105 -0.000464 69.879645 -18.451556 12.961080 2.850056 0.000137 0.000218 69.537480 -14.953775 10.410690 2.774872 -0.000017 -0.000027 0.000000 -0.000001 -0.000000 9.533484 0.000162 -0.000069 68.860724 -21.865567 15.078896 3.700043 0.000117 -0.000375 72.176214 -15.935989 11.648743 2.950073 0.000135 -0.000192 72.431165 -13.906009 10.208895 2.952880 -0.000014 0.000064 0.000000 -0.000001 0.000000 9.104605 -0.042886 -1.865215 72.217250 -20.762494 15.224329 3.150053 0.000149 -0.000082 71.959601 -15.587665 11.351169 2.950022 0.000137 -0.000098 72.703710 -11.110901 8.190311 2.644311 0.000027 0.000054 0.000001 0.000001 -0.000001 8.077863 -0.486745 -3.806397 69.070834 -21.766734 15.512534 3.599989 0.000133 0.014575 66.128020 -18.585319 12.522190 2.100039 0.000135 0.007556 68.497392 -12.816496 9.083108 2.125517 -0.000015 0.007515 -0.000000 0.000000 0.000001 -8.207786 -6.751667 -1.599560 -0.077001 -0.000003 0.000080 -0.000002 -44.370110 0.345938 0.153719 -0.000000 -0.000000 0.000000 -44.423679 -3.043532 -0.076700 0.000000 -0.000002 -0.000006 -8.728667 10.710559 -0.000009 -0.000000 -0.000000 -0.000001 -0.000679 9.278123 0.000000 -0.000000 -0.000000 8.207792 -6.751710 -1.599556 -0.074518 -0.000003 0.000081 -0.000002 -44.370014 0.346960 0.148822 0.000002 0.000000 -0.000001 -44.423664 -3.044403 -0.074314 0.000000 -0.000002 -0.000004 -8.728671 10.710558 0.000007 -0.000000 -0.000000 0.000000 -0.000680 9.278137 -0.000000 0.000000 -0.000001 
